<svg width="30" height="30" viewBox="0 0 30 30" fill="none" xmlns="http://www.w3.org/2000/svg">
<path d="M28.7417 12.5915L15.9917 1.2582C15.425 0.833203 14.7167 0.833203 14.15 1.2582L1.4 12.5915C0.833338 13.1582 0.691671 14.0082 1.25834 14.5749C1.825 15.1415 2.675 15.2832 3.24167 14.7165L3.66667 14.1499V27.7499C3.66667 28.5999 4.23334 29.1665 5.08334 29.1665H24.9167C25.7667 29.1665 26.3333 28.5999 26.3333 27.7499V14.1499L26.7583 14.5749C27.325 15.1415 28.175 14.9999 28.7417 14.4332C29.3083 14.0082 29.3083 13.0165 28.7417 12.5915ZM15 13.5832C17.125 13.5832 18.825 15.2832 18.825 17.4082C18.825 19.5332 17.125 21.2332 15 21.2332C12.875 21.2332 11.175 19.5332 11.175 17.4082C11.175 15.2832 12.875 13.5832 15 13.5832ZM7.91667 26.3332C7.91667 26.1915 7.91667 26.1915 8.05834 26.0499C11.175 22.2249 16.8417 21.5165 20.6667 24.6332C21.2333 25.0582 21.6583 25.4832 22.0833 26.0499C22.0833 26.0499 22.0833 26.1915 22.225 26.3332H7.91667Z" fill="white"/>
</svg>
