<svg width="30" height="30" viewBox="0 0 30 30" fill="none" xmlns="http://www.w3.org/2000/svg">
<path d="M7.91666 12.1668H10.75C11.1257 12.1668 11.4861 12.0176 11.7517 11.7519C12.0174 11.4862 12.1667 11.1259 12.1667 10.7502C12.1667 10.3744 12.0174 10.0141 11.7517 9.74843C11.4861 9.48275 11.1257 9.3335 10.75 9.3335H7.91666C7.54094 9.3335 7.1806 9.48275 6.91493 9.74843C6.64925 10.0141 6.49999 10.3744 6.49999 10.7502C6.49999 11.1259 6.64925 11.4862 6.91493 11.7519C7.1806 12.0176 7.54094 12.1668 7.91666 12.1668ZM27.75 3.66683H16.4167V2.25016C16.4167 1.87444 16.2674 1.5141 16.0017 1.24843C15.7361 0.982752 15.3757 0.833496 15 0.833496C14.6243 0.833496 14.2639 0.982752 13.9983 1.24843C13.7326 1.5141 13.5833 1.87444 13.5833 2.25016V3.66683H2.24999C1.87427 3.66683 1.51394 3.81609 1.24826 4.08176C0.982584 4.34744 0.833328 4.70777 0.833328 5.0835V19.2502C0.833328 20.3773 1.28109 21.4583 2.07812 22.2554C2.87515 23.0524 3.95616 23.5002 5.08333 23.5002H11.5858L8.32749 26.7443C8.19471 26.876 8.08932 27.0327 8.0174 27.2053C7.94548 27.378 7.90845 27.5631 7.90845 27.7502C7.90845 27.9372 7.94548 28.1223 8.0174 28.295C8.08932 28.4676 8.19471 28.6243 8.32749 28.756C8.45919 28.8888 8.61588 28.9942 8.78851 29.0661C8.96114 29.138 9.14631 29.175 9.33333 29.175C9.52034 29.175 9.70551 29.138 9.87815 29.0661C10.0508 28.9942 10.2075 28.8888 10.3392 28.756L13.5833 25.4977V27.7502C13.5833 28.1259 13.7326 28.4862 13.9983 28.7519C14.2639 29.0176 14.6243 29.1668 15 29.1668C15.3757 29.1668 15.7361 29.0176 16.0017 28.7519C16.2674 28.4862 16.4167 28.1259 16.4167 27.7502V25.4977L19.6608 28.756C19.7925 28.8888 19.9492 28.9942 20.1218 29.0661C20.2945 29.138 20.4796 29.175 20.6667 29.175C20.8537 29.175 21.0388 29.138 21.2115 29.0661C21.3841 28.9942 21.5408 28.8888 21.6725 28.756C21.8053 28.6243 21.9107 28.4676 21.9826 28.295C22.0545 28.1223 22.0915 27.9372 22.0915 27.7502C22.0915 27.5631 22.0545 27.378 21.9826 27.2053C21.9107 27.0327 21.8053 26.876 21.6725 26.7443L18.4142 23.5002H24.9167C26.0438 23.5002 27.1248 23.0524 27.9219 22.2554C28.7189 21.4583 29.1667 20.3773 29.1667 19.2502V5.0835C29.1667 4.70777 29.0174 4.34744 28.7517 4.08176C28.4861 3.81609 28.1257 3.66683 27.75 3.66683V3.66683ZM26.3333 19.2502C26.3333 19.6259 26.1841 19.9862 25.9184 20.2519C25.6527 20.5176 25.2924 20.6668 24.9167 20.6668H5.08333C4.7076 20.6668 4.34727 20.5176 4.08159 20.2519C3.81592 19.9862 3.66666 19.6259 3.66666 19.2502V6.50016H26.3333V19.2502ZM7.91666 17.8335H16.4167C16.7924 17.8335 17.1527 17.6842 17.4184 17.4186C17.6841 17.1529 17.8333 16.7926 17.8333 16.4168C17.8333 16.0411 17.6841 15.6808 17.4184 15.4151C17.1527 15.1494 16.7924 15.0002 16.4167 15.0002H7.91666C7.54094 15.0002 7.1806 15.1494 6.91493 15.4151C6.64925 15.6808 6.49999 16.0411 6.49999 16.4168C6.49999 16.7926 6.64925 17.1529 6.91493 17.4186C7.1806 17.6842 7.54094 17.8335 7.91666 17.8335Z" fill="white"/>
</svg>
