<svg width="34" height="30" viewBox="0 0 34 30" fill="none" xmlns="http://www.w3.org/2000/svg">
<path d="M12.5 19.5C12.2033 19.5 11.9133 19.588 11.6666 19.7528C11.42 19.9176 11.2277 20.1519 11.1142 20.426C11.0006 20.7001 10.9709 21.0017 11.0288 21.2926C11.0867 21.5836 11.2296 21.8509 11.4393 22.0607C11.6491 22.2704 11.9164 22.4133 12.2074 22.4712C12.4983 22.5291 12.7999 22.4994 13.074 22.3858C13.3481 22.2723 13.5824 22.08 13.7472 21.8334C13.912 21.5867 14 21.2967 14 21C14 20.6022 13.842 20.2206 13.5607 19.9393C13.2794 19.658 12.8978 19.5 12.5 19.5ZM2 18C1.60218 18 1.22064 18.158 0.93934 18.4393C0.658035 18.7206 0.5 19.1022 0.5 19.5V22.5C0.5 22.8978 0.658035 23.2794 0.93934 23.5607C1.22064 23.842 1.60218 24 2 24C2.39782 24 2.77936 23.842 3.06066 23.5607C3.34196 23.2794 3.5 22.8978 3.5 22.5V19.5C3.5 19.1022 3.34196 18.7206 3.06066 18.4393C2.77936 18.158 2.39782 18 2 18ZM32 18C31.6022 18 31.2206 18.158 30.9393 18.4393C30.658 18.7206 30.5 19.1022 30.5 19.5V22.5C30.5 22.8978 30.658 23.2794 30.9393 23.5607C31.2206 23.842 31.6022 24 32 24C32.3978 24 32.7794 23.842 33.0607 23.5607C33.342 23.2794 33.5 22.8978 33.5 22.5V19.5C33.5 19.1022 33.342 18.7206 33.0607 18.4393C32.7794 18.158 32.3978 18 32 18ZM24.5 7.5H18.5V5.58C18.9534 5.31823 19.3304 4.94237 19.5936 4.48975C19.8567 4.03714 19.9968 3.52354 20 3C20 2.20435 19.6839 1.44129 19.1213 0.87868C18.5587 0.31607 17.7956 0 17 0C16.2044 0 15.4413 0.31607 14.8787 0.87868C14.3161 1.44129 14 2.20435 14 3C14.0032 3.52354 14.1433 4.03714 14.4064 4.48975C14.6696 4.94237 15.0466 5.31823 15.5 5.58V7.5H9.5C8.30653 7.5 7.16193 7.97411 6.31802 8.81802C5.47411 9.66193 5 10.8065 5 12V25.5C5 26.6935 5.47411 27.8381 6.31802 28.682C7.16193 29.5259 8.30653 30 9.5 30H24.5C25.6935 30 26.8381 29.5259 27.682 28.682C28.5259 27.8381 29 26.6935 29 25.5V12C29 10.8065 28.5259 9.66193 27.682 8.81802C26.8381 7.97411 25.6935 7.5 24.5 7.5ZM19.58 10.5L18.83 13.5H15.17L14.42 10.5H19.58ZM26 25.5C26 25.8978 25.842 26.2794 25.5607 26.5607C25.2794 26.842 24.8978 27 24.5 27H9.5C9.10218 27 8.72064 26.842 8.43934 26.5607C8.15804 26.2794 8 25.8978 8 25.5V12C8 11.6022 8.15804 11.2206 8.43934 10.9393C8.72064 10.658 9.10218 10.5 9.5 10.5H11.33L12.5 15.36C12.5821 15.6928 12.7758 15.9875 13.0487 16.1949C13.3216 16.4023 13.6573 16.51 14 16.5H20C20.3427 16.51 20.6784 16.4023 20.9513 16.1949C21.2242 15.9875 21.4179 15.6928 21.5 15.36L22.67 10.5H24.5C24.8978 10.5 25.2794 10.658 25.5607 10.9393C25.842 11.2206 26 11.6022 26 12V25.5ZM21.5 19.5C21.2033 19.5 20.9133 19.588 20.6666 19.7528C20.42 19.9176 20.2277 20.1519 20.1142 20.426C20.0006 20.7001 19.9709 21.0017 20.0288 21.2926C20.0867 21.5836 20.2296 21.8509 20.4393 22.0607C20.6491 22.2704 20.9164 22.4133 21.2074 22.4712C21.4983 22.5291 21.7999 22.4994 22.074 22.3858C22.3481 22.2723 22.5824 22.08 22.7472 21.8334C22.912 21.5867 23 21.2967 23 21C23 20.6022 22.842 20.2206 22.5607 19.9393C22.2794 19.658 21.8978 19.5 21.5 19.5Z" fill="white"/>
</svg>
