<svg width="22" height="22" viewBox="0 0 22 22" fill="none" xmlns="http://www.w3.org/2000/svg">
<path d="M15.0192 11.7691C16.0813 10.9335 16.8565 9.7876 17.237 8.49087C17.6175 7.19414 17.5844 5.81105 17.1423 4.53402C16.7001 3.25699 15.8709 2.14952 14.7701 1.36569C13.6692 0.581861 12.3514 0.160645 11 0.160645C9.64859 0.160645 8.33079 0.581861 7.22992 1.36569C6.12905 2.14952 5.29987 3.25699 4.85773 4.53402C4.41558 5.81105 4.38247 7.19414 4.76299 8.49087C5.14351 9.7876 5.91874 10.9335 6.98083 11.7691C5.16091 12.4982 3.57297 13.7076 2.3863 15.2682C1.19962 16.8288 0.45869 18.6822 0.242496 20.6308C0.226847 20.773 0.239373 20.917 0.279357 21.0544C0.319342 21.1918 0.386003 21.32 0.475534 21.4317C0.65635 21.6572 0.919345 21.8017 1.20666 21.8333C1.49398 21.8649 1.78209 21.781 2.0076 21.6002C2.23311 21.4194 2.37756 21.1564 2.40916 20.8691C2.64705 18.7514 3.65682 16.7956 5.24557 15.3753C6.83431 13.955 8.89064 13.1699 11.0217 13.1699C13.1527 13.1699 15.209 13.955 16.7978 15.3753C18.3865 16.7956 19.3963 18.7514 19.6342 20.8691C19.6636 21.1353 19.7906 21.3811 19.9907 21.5592C20.1908 21.7373 20.4497 21.8349 20.7175 21.8333H20.8367C21.1206 21.8006 21.3802 21.657 21.5588 21.4338C21.7373 21.2106 21.8205 20.9258 21.79 20.6416C21.5728 18.6875 20.8279 16.8293 19.6351 15.2663C18.4423 13.7033 16.8467 12.4944 15.0192 11.7691V11.7691ZM11 10.9999C10.1429 10.9999 9.30514 10.7458 8.59253 10.2696C7.87991 9.79348 7.3245 9.11671 6.99652 8.32489C6.66854 7.53308 6.58272 6.66179 6.74993 5.82121C6.91713 4.98062 7.32984 4.2085 7.93587 3.60247C8.54189 2.99644 9.31402 2.58373 10.1546 2.41653C10.9952 2.24933 11.8665 2.33514 12.6583 2.66312C13.4501 2.9911 14.1269 3.54651 14.603 4.25913C15.0792 4.97174 15.3333 5.80955 15.3333 6.6666C15.3333 7.81587 14.8768 8.91807 14.0641 9.73073C13.2515 10.5434 12.1493 10.9999 11 10.9999Z" fill="white"/>
</svg>
