<svg width="34" height="34" viewBox="0 0 34 34" fill="none" xmlns="http://www.w3.org/2000/svg">
<path d="M32.6833 11.3999C32.6833 11.3999 32.6833 11.3999 32.6833 11.3166C31.509 8.11026 29.3782 5.34202 26.5791 3.38632C23.7801 1.43062 20.4479 0.381836 17.0333 0.381836C13.6187 0.381836 10.2866 1.43062 7.48751 3.38632C4.68847 5.34202 2.55766 8.11026 1.38333 11.3166C1.38333 11.3166 1.38333 11.3166 1.38333 11.3999C0.0718698 15.018 0.0718698 18.9817 1.38333 22.5999C1.38333 22.5999 1.38333 22.5999 1.38333 22.6832C2.55766 25.8895 4.68847 28.6577 7.48751 30.6134C10.2866 32.5691 13.6187 33.6179 17.0333 33.6179C20.4479 33.6179 23.7801 32.5691 26.5791 30.6134C29.3782 28.6577 31.509 25.8895 32.6833 22.6832C32.6833 22.6832 32.6833 22.6832 32.6833 22.5999C33.9948 18.9817 33.9948 15.018 32.6833 11.3999V11.3999ZM4.1 20.3332C3.52204 18.1486 3.52204 15.8512 4.1 13.6665H7.2C6.93338 15.8808 6.93338 18.119 7.2 20.3332H4.1ZM5.46666 23.6666H7.8C8.19119 25.153 8.75035 26.59 9.46666 27.9499C7.83216 26.8364 6.46582 25.3733 5.46666 23.6666ZM7.8 10.3332H5.46666C6.45145 8.63169 7.80032 7.16899 9.41666 6.04988C8.71759 7.41196 8.17523 8.84892 7.8 10.3332V10.3332ZM15.3333 29.8332C13.2863 28.331 11.8486 26.1419 11.2833 23.6666H15.3333V29.8332ZM15.3333 20.3332H10.5667C10.2556 18.1219 10.2556 15.8779 10.5667 13.6665H15.3333V20.3332ZM15.3333 10.3332H11.2833C11.8486 7.85783 13.2863 5.66875 15.3333 4.16655V10.3332ZM28.5333 10.3332H26.2C25.8088 8.84681 25.2496 7.40978 24.5333 6.04988C26.1678 7.16333 27.5342 8.62645 28.5333 10.3332ZM18.6667 4.16655C20.7137 5.66875 22.1514 7.85783 22.7167 10.3332H18.6667V4.16655ZM18.6667 29.8332V23.6666H22.7167C22.1514 26.1419 20.7137 28.331 18.6667 29.8332V29.8332ZM23.4333 20.3332H18.6667V13.6665H23.4333C23.7443 15.8779 23.7443 18.1219 23.4333 20.3332ZM24.5833 27.9499C25.2996 26.59 25.8588 25.153 26.25 23.6666H28.5833C27.5842 25.3733 26.2178 26.8364 24.5833 27.9499ZM29.9 20.3332H26.8C26.9355 19.2273 27.0023 18.1141 27 16.9999C27.0018 15.8857 26.935 14.7725 26.8 13.6665H29.9C30.4779 15.8512 30.4779 18.1486 29.9 20.3332Z" fill="white"/>
</svg>
