<svg width="30" height="30" viewBox="0 0 30 30" fill="none" xmlns="http://www.w3.org/2000/svg">
<path fill-rule="evenodd" clip-rule="evenodd" d="M30 15.0906C30 6.75709 23.2835 0 15 0C6.71652 0 0 6.75709 0 15.0906C0 22.6224 5.48438 28.8655 12.6562 29.9987V19.4541H8.84665V15.0906H12.6562V11.766C12.6562 7.98455 14.8962 5.8941 18.3221 5.8941C19.9634 5.8941 21.6804 6.18917 21.6804 6.18917V9.90321H19.7879C17.9257 9.90321 17.3431 11.066 17.3431 12.2611V15.0906H21.5029L20.8386 19.4541H17.3438V30C24.5156 28.8675 30 22.6245 30 15.0906Z" fill="url(#paint0_linear_71_457)"/>
<defs>
<linearGradient id="paint0_linear_71_457" x1="15" y1="0" x2="15" y2="30" gradientUnits="userSpaceOnUse">
<stop stop-color="#2B00D9"/>
<stop offset="1" stop-color="#00FFD1"/>
</linearGradient>
</defs>
</svg>
