<svg width="30" height="26" viewBox="0 0 30 26" fill="none" xmlns="http://www.w3.org/2000/svg">
<path d="M10.5901 13.2563C10.6011 11.7915 11.3843 10.4194 12.7081 9.54053L25.7637 0.868897C26.7896 0.187354 28.2182 0.255128 29.1614 1.02979C30.099 1.8042 30.27 3.06299 29.575 4.0166L20.6562 16.2251C19.8178 17.3774 18.4554 18.1343 16.9497 18.3247L10.5901 13.2563ZM15.8851 19.9312C15.8851 22.9536 13.1218 25.3999 9.70758 25.3999H1.76502C0.790396 25.3999 0 24.7017 0 23.8374C0 22.9731 0.790396 22.2749 1.76502 22.2749H2.03032C3.00273 22.2749 3.66241 21.3521 3.56257 20.4976C3.54106 20.312 3.53003 20.1216 3.53003 19.9312C3.53003 16.9819 6.17204 14.5747 9.47041 14.4673L15.8741 19.5649C15.8796 19.6431 15.8851 19.8091 15.8851 19.9312Z" fill="url(#paint0_linear_71_405)"/>
<defs>
<linearGradient id="paint0_linear_71_405" x1="15" y1="0.399902" x2="15" y2="25.3999" gradientUnits="userSpaceOnUse">
<stop stop-color="#001AFF"/>
<stop offset="1" stop-color="#00FFD1" stop-opacity="0.87"/>
</linearGradient>
</defs>
</svg>
