<svg width="22" height="22" viewBox="0 0 22 22" fill="none" xmlns="http://www.w3.org/2000/svg">
<path d="M20.5682 11.7876L1.49825 20.9613C1.44526 20.9903 1.38688 21.0034 1.32844 20.9993C1.27001 20.9951 1.2134 20.974 1.1638 20.9377C1.11421 20.9014 1.07322 20.8512 1.0446 20.7916C1.01598 20.732 1.00065 20.665 1 20.5967V14.6961C1 14.599 1.02904 14.5051 1.0821 14.4303C1.13516 14.3556 1.20891 14.3048 1.29064 14.2868L12.3458 11.8392C13.1209 11.6679 13.1209 10.3733 12.3458 10.2019L1.2902 7.7544C1.20863 7.73623 1.13503 7.68549 1.08207 7.61088C1.0291 7.53627 1.00008 7.44247 1 7.3456V1.44753C1 1.14861 1.26252 0.913232 1.49825 1.03092L20.5682 10.2571C20.6964 10.3215 20.8056 10.4283 20.8824 10.5643C20.9591 10.7003 21 10.8596 21 11.0224C21 11.1852 20.9591 11.3444 20.8824 11.4804C20.8056 11.6164 20.6964 11.7232 20.5682 11.7876Z" stroke="white" stroke-width="2" stroke-linecap="round" stroke-linejoin="round"/>
</svg>
